<svg height='300px' width='300px'  fill="#b6b6b6" xmlns="http://www.w3.org/2000/svg" viewBox="0 0 32 32" x="0px" y="0px"><title>barcode, qr code, qr, scan, scanner</title><g data-name="16"><polygon points="4 4 11 4 11 2 2 2 2 11 4 11 4 4"></polygon><polygon points="21 2 21 4 28 4 28 11 30 11 30 2 21 2"></polygon><polygon points="28 28 21 28 21 30 30 30 30 21 28 21 28 28"></polygon><polygon points="4 21 2 21 2 30 11 30 11 28 4 28 4 21"></polygon><path d="M8,8v7H5v2H8v7H24V17h2V15H24V8Zm2,2H22v5H10ZM22,22H10V17H22Z"></path></g></svg>